<!-- Generated by IcoMoon.io -->
<svg version="1.1" xmlns="http://www.w3.org/2000/svg" width="256" height="448" viewBox="0 0 256 448">
<g id="icomoon-ignore">
</g>
<path d="M256 272c0 4.25-1.75 8.25-4.75 11.25l-112 112c-3 3-7 4.75-11.25 4.75s-8.25-1.75-11.25-4.75l-112-112c-3-3-4.75-7-4.75-11.25 0-8.75 7.25-16 16-16h224c8.75 0 16 7.25 16 16zM256 176c0 8.75-7.25 16-16 16h-224c-8.75 0-16-7.25-16-16 0-4.25 1.75-8.25 4.75-11.25l112-112c3-3 7-4.75 11.25-4.75s8.25 1.75 11.25 4.75l112 112c3 3 4.75 7 4.75 11.25z"></path>
</svg>
